<?xml version="1.0" encoding="UTF-8"?>
<!DOCTYPE svg PUBLIC "-//W3C//DTD SVG 1.1//EN" "http://www.w3.org/Graphics/SVG/1.1/DTD/svg11.dtd">
<svg xmlns="http://www.w3.org/2000/svg" version="1.1" width="512px" height="512px" style="shape-rendering:geometricPrecision; text-rendering:geometricPrecision; image-rendering:optimizeQuality; fill-rule:evenodd; clip-rule:evenodd" xmlns:xlink="http://www.w3.org/1999/xlink">
<g><path style="opacity:0.998" fill="#2cbfae" d="M 232.5,-0.5 C 247.833,-0.5 263.167,-0.5 278.5,-0.5C 368.144,10.3879 435.644,54.7213 481,132.5C 497.695,163.971 507.861,197.304 511.5,232.5C 511.5,247.833 511.5,263.167 511.5,278.5C 500.612,368.144 456.279,435.644 378.5,481C 347.029,497.695 313.696,507.861 278.5,511.5C 263.167,511.5 247.833,511.5 232.5,511.5C 142.856,500.612 75.3562,456.279 30,378.5C 13.3053,347.029 3.1386,313.696 -0.5,278.5C -0.5,263.167 -0.5,247.833 -0.5,232.5C 10.3875,142.857 54.7208,75.3573 132.5,30C 163.971,13.3053 197.304,3.1386 232.5,-0.5 Z"/></g>
<g><path style="opacity:1" fill="#edeeed" d="M 283.5,312.5 C 283.5,306.167 283.5,299.833 283.5,293.5C 293.522,293.832 303.522,293.499 313.5,292.5C 313.376,291.893 313.043,291.56 312.5,291.5C 293.88,264.882 274.88,238.549 255.5,212.5C 236.12,238.549 217.12,264.882 198.5,291.5C 197.957,291.56 197.624,291.893 197.5,292.5C 207.478,293.499 217.478,293.832 227.5,293.5C 227.5,299.833 227.5,306.167 227.5,312.5C 191.472,312.946 155.472,312.446 119.5,311C 93.8359,302.981 82.0026,285.481 84,258.5C 89.9537,236.046 104.454,223.379 127.5,220.5C 117.023,183.296 129.023,156.129 163.5,139C 198.079,128.801 224.746,138.968 243.5,169.5C 260.772,140.133 285.105,132.299 316.5,146C 334.221,157.273 342.554,173.44 341.5,194.5C 372.872,184.376 398.372,192.376 418,218.5C 433.488,248.39 429.322,275.223 405.5,299C 396.97,305.763 387.303,310.096 376.5,312C 345.502,312.5 314.502,312.667 283.5,312.5 Z"/></g>
<g><path style="opacity:1" fill="#575b6d" d="M 312.5,291.5 C 302.833,292.167 293.167,292.833 283.5,293.5C 282.502,320.662 282.169,347.995 282.5,375.5C 264.5,375.5 246.5,375.5 228.5,375.5C 228.831,347.995 228.498,320.662 227.5,293.5C 217.833,292.833 208.167,292.167 198.5,291.5C 217.12,264.882 236.12,238.549 255.5,212.5C 274.88,238.549 293.88,264.882 312.5,291.5 Z"/></g>
<g><path style="opacity:1" fill="#92969f" d="M 198.5,291.5 C 208.167,292.167 217.833,292.833 227.5,293.5C 217.478,293.832 207.478,293.499 197.5,292.5C 197.624,291.893 197.957,291.56 198.5,291.5 Z"/></g>
<g><path style="opacity:1" fill="#92969f" d="M 312.5,291.5 C 313.043,291.56 313.376,291.893 313.5,292.5C 303.522,293.499 293.522,293.832 283.5,293.5C 293.167,292.833 302.833,292.167 312.5,291.5 Z"/></g>
<g><path style="opacity:1" fill="#537d84" d="M 227.5,293.5 C 228.498,320.662 228.831,347.995 228.5,375.5C 246.5,375.5 264.5,375.5 282.5,375.5C 282.169,347.995 282.502,320.662 283.5,293.5C 283.5,299.833 283.5,306.167 283.5,312.5C 283.5,333.833 283.5,355.167 283.5,376.5C 264.833,376.5 246.167,376.5 227.5,376.5C 227.5,355.167 227.5,333.833 227.5,312.5C 227.5,306.167 227.5,299.833 227.5,293.5 Z"/></g>
</svg>
